<?xml version="1.0" standalone="no"?>
<!DOCTYPE svg PUBLIC "-//W3C//DTD SVG 1.1//EN"
  "http://www.w3.org/Graphics/SVG/1.1/DTD/svg11.dtd">
<svg width="22mm" height="42mm" viewBox="-8 -39 22 42" xmlns="http://www.w3.org/2000/svg" version="1.1">
	<title>svgOutput</title>
	<desc>made with tinkercad</desc>
<path d="M 6.002999782562256 -37 L 6.002999782562256 -38 L 7.998000144958496 -38 L 7.998000144958496 -37 L 6.002999782562256 -37 M 6.002999782562256 2 L 6.002999782562256 1 L 7.997000217437744 1 L 7.997000217437744 2 L 6.002999782562256 2 M -7 -26 L -7 -26.99799919128418 L -6.002999782562256 -26.99799919128418 L -6 -26.99799919128418 L -5.998000144958496 -26.99799919128418 L -5.998000144958496 -29.003000259399414 L -6 -29.003000259399414 L -6.002999782562256 -29.003000259399414 L -7 -29.003000259399414 L -7 -30.99799919128418 L -6.002999782562256 -30.99799919128418 L -6 -30.99799919128418 L -5.998000144958496 -30.99799919128418 L -5.998000144958496 -33.00299835205078 L -6 -33.00299835205078 L -6.002999782562256 -33.00299835205078 L -7 -33.00299835205078 L -7 -34.99800109863281 L -6.002999782562256 -34.99800109863281 L -6 -34.99800109863281 L -5.998000144958496 -34.99800109863281 L -5.998000144958496 -36.99800109863281 L -4 -36.99800109863281 L -3.997999906539917 -36.99800109863281 L -3.997999906539917 -38 L -2.003000020980835 -38 L -2.003000020980835 -36.99800109863281 L -2 -36.99800109863281 L 0 -36.99800109863281 L 0.003000000026077032 -36.99800109863281 L 0.003000000026077032 -38 L 1.9980000257492065 -38 L 1.9980000257492065 -36.99800109863281 L 2 -36.99800109863281 L 4 -36.99800109863281 L 4.002999782562256 -36.99800109863281 L 4.002999782562256 -38 L 5.998000144958496 -38 L 5.998000144958496 -36.99800109863281 L 6 -36.99800109863281 L 8 -36.99800109863281 L 8.003000259399414 -36.99800109863281 L 8.003000259399414 -38 L 9.996999740600586 -38 L 9.996999740600586 -36.99800109863281 L 10 -36.99800109863281 L 11.998000144958496 -36.99800109863281 L 11.998000144958496 -34.99800109863281 L 12 -34.99800109863281 L 12.003000259399414 -34.99800109863281 L 12.899999618530273 -34.99800109863281 L 13 -34.99800109863281 L 13 -33.00299835205078 L 12.899999618530273 -33.00299835205078 L 12.003000259399414 -33.00299835205078 L 12 -33.00299835205078 L 11.998000144958496 -33.00299835205078 L 11.998000144958496 -30.99799919128418 L 12 -30.99799919128418 L 12.003000259399414 -30.99799919128418 L 12.899999618530273 -30.99799919128418 L 13 -30.99799919128418 L 13 -29.003000259399414 L 12.899999618530273 -29.003000259399414 L 12.003000259399414 -29.003000259399414 L 12 -29.003000259399414 L 11.998000144958496 -29.003000259399414 L 11.998000144958496 -26.99799919128418 L 12 -26.99799919128418 L 12.003000259399414 -26.99799919128418 L 12.899999618530273 -26.99799919128418 L 13 -26.99799919128418 L 13 -25.003000259399414 L 12.899999618530273 -25.003000259399414 L 12.003000259399414 -25.003000259399414 L 12 -25.003000259399414 L 11.998000144958496 -25.003000259399414 L 11.998000144958496 -22.99799919128418 L 12 -22.99799919128418 L 12.003000259399414 -22.99799919128418 L 12.899999618530273 -22.99799919128418 L 13 -22.99799919128418 L 13 -21.003000259399414 L 12.899999618530273 -21.003000259399414 L 12.003000259399414 -21.003000259399414 L 12 -21.003000259399414 L 11.998000144958496 -21.003000259399414 L 11.998000144958496 -18.99799919128418 L 12 -18.99799919128418 L 12.003000259399414 -18.99799919128418 L 12.899999618530273 -18.99799919128418 L 13 -18.99799919128418 L 13 -17.003000259399414 L 12.899999618530273 -17.003000259399414 L 12.003000259399414 -17.003000259399414 L 12 -17.003000259399414 L 11.998000144958496 -17.003000259399414 L 11.998000144958496 -14.9970121383667 L 12 -14.9970121383667 L 12.003000259399414 -14.9970121383667 L 12.899999618530273 -14.9970121383667 L 13 -14.9970121383667 L 13 -13.003000259399414 L 12.003000259399414 -13.003000259399414 L 12 -13.003000259399414 L 11.998000144958496 -13.003000259399414 L 11.998000144958496 -10.9970121383667 L 12 -10.9970121383667 L 12.003000259399414 -10.9970121383667 L 13 -10.9970121383667 L 13 -9.003000259399414 L 12.003000259399414 -9.003000259399414 L 12 -9.003000259399414 L 11.998000144958496 -9.003000259399414 L 11.998000144958496 -6.998000144958496 L 12 -6.998000144958496 L 12.003000259399414 -6.998000144958496 L 13 -6.998000144958496 L 13 -5.002999782562256 L 12.003000259399414 -5.002999782562256 L 12 -5.002999782562256 L 11.998000144958496 -5.002999782562256 L 11.998000144958496 -2.997999906539917 L 12 -2.997999906539917 L 12.003000259399414 -2.997999906539917 L 13 -2.997999906539917 L 13 -1.003000020980835 L 12.003000259399414 -1.003000020980835 L 12 -1.003000020980835 L 11.998000144958496 -1.003000020980835 L 11.998000144958496 0.9980000257492067 L 9.996999740600586 0.9980000257492067 L 9.996999740600586 1 L 9.996999740600586 2 L 8.003000259399414 2 L 8.003000259399414 1 L 8.003000259399414 0.9980000257492067 L 5.998000144958496 0.9980000257492067 L 5.998000144958496 1 L 5.998000144958496 2 L 4.002999782562256 2 L 4.002999782562256 1 L 4.002999782562256 0.9980000257492067 L 1.9980000257492065 0.9980000257492067 L 1.9980000257492065 1 L 1.9980000257492065 2 L 0.003000000026077032 2 L 0.003000000026077032 1 L 0.003000000026077032 0.9980000257492067 L -2.003000020980835 0.9980000257492067 L -2.003000020980835 1 L -2.003000020980835 2 L -3.997999906539917 2 L -3.997999906539917 1 L -3.997999906539917 0.9980000257492067 L -5.998000144958496 0.9980000257492067 L -5.998000144958496 -1.003000020980835 L -6 -1.003000020980835 L -6.002999782562256 -1.003000020980835 L -7 -1.003000020980835 L -7 -2.997999906539917 L -6.002999782562256 -2.997999906539917 L -6 -2.997999906539917 L -5.998000144958496 -2.997999906539917 L -5.998000144958496 -5.002999782562256 L -6 -5.002999782562256 L -6.002999782562256 -5.002999782562256 L -7 -5.002999782562256 L -7 -6.998000144958496 L -6.002999782562256 -6.998000144958496 L -6 -6.998000144958496 L -5.998000144958496 -6.998000144958496 L -5.998000144958496 -9.003000259399414 L -6 -9.003000259399414 L -6.002999782562256 -9.003000259399414 L -7 -9.003000259399414 L -7 -10.9970121383667 L -6.002999782562256 -10.9970121383667 L -6 -10.9970121383667 L -5.998000144958496 -10.9970121383667 L -5.998000144958496 -13.003000259399414 L -6 -13.003000259399414 L -6.002999782562256 -13.003000259399414 L -7 -13.003000259399414 L -7 -14.9970121383667 L -6.002999782562256 -14.9970121383667 L -6 -14.9970121383667 L -5.998000144958496 -14.9970121383667 L -5.998000144958496 -17.003000259399414 L -6 -17.003000259399414 L -6.002999782562256 -17.003000259399414 L -7 -17.003000259399414 L -7 -18.99799919128418 L -6.002999782562256 -18.99799919128418 L -6 -18.99799919128418 L -5.998000144958496 -18.99799919128418 L -5.998000144958496 -21.003000259399414 L -6 -21.003000259399414 L -6.002999782562256 -21.003000259399414 L -7 -21.003000259399414 L -7 -22.99799919128418 L -6.002999782562256 -22.99799919128418 L -6 -22.99799919128418 L -5.998000144958496 -22.99799919128418 L -5.998000144958496 -25.003000259399414 L -6 -25.003000259399414 L -6.002999782562256 -25.003000259399414 L -7 -25.003000259399414 L -7 -26 M -7 2 L -7 1.003000020980835 L -6.002999782562256 1.003000020980835 L -6.002999782562256 2 L -7 2 M -4.002999782562256 1 L -4.002999782562256 2 L -5.998000144958496 2 L -5.998000144958496 1.003000020980835 L -5.998000144958496 1 L -4.002999782562256 1 M -7 -4.998000144958496 L -6.002999782562256 -4.998000144958496 L -6 -4.998000144958496 L -6 -3.003000020980835 L -6.002999782562256 -3.003000020980835 L -7 -3.003000020980835 L -7 -4.998000144958496 M 12 -20.99799919128418 L 12.003000259399414 -20.99799919128418 L 12.899999618530273 -20.99799919128418 L 13 -20.99799919128418 L 13 -19.003000259399414 L 12.899999618530273 -19.003000259399414 L 12.003000259399414 -19.003000259399414 L 12 -19.003000259399414 L 12 -20.99799919128418 M -4.002999782562256 -37 L -5.998000144958496 -37 L -5.998000144958496 -38 L -4.002999782562256 -38 L -4.002999782562256 -37 M -7 -8.996999740600586 L -6.002999782562256 -8.997024536132812 L -6 -8.997025489807129 L -6 -7.002999782562256 L -6.002999782562256 -7.002999782562256 L -7 -7.002999782562256 L -7 -8.996999740600586 M -1.9980000257492065 2 L -1.9980000257492065 1 L -0.003000000026077032 1 L -0.003000000026077032 2 L -1.9980000257492065 2 M 12 -28.99799919128418 L 12.003000259399414 -28.99799919128418 L 12.899999618530273 -28.99799919128418 L 13 -28.99799919128418 L 13 -27.003000259399414 L 12.899999618530273 -27.003000259399414 L 12.003000259399414 -27.003000259399414 L 12 -27.003000259399414 L 12 -28.99799919128418 M -7 -13 L -6.002999782562256 -13 L -6 -13 L -6 -11.003000259399414 L -6.002999782562256 -11.003000259399414 L -7 -11.003000259399414 L -7 -13 M 12 -32.99800109863281 L 12.003000259399414 -32.99800109863281 L 12.899999618530273 -32.99800109863281 L 13 -32.99800109863281 L 13 -31.003000259399414 L 12.899999618530273 -31.003000259399414 L 12.003000259399414 -31.003000259399414 L 12 -31.003000259399414 L 12 -32.99800109863281 M -1.9980000257492065 -37 L -1.9980000257492065 -38 L -0.003000000026077032 -38 L -0.003000000026077032 -37 L -1.9980000257492065 -37 M -7 -16.99799919128418 L -6.002999782562256 -16.99799919128418 L -6 -16.99799919128418 L -6 -15.003000259399414 L -6.002999782562256 -15.003000259399414 L -7 -15.003000259399414 L -7 -16.99799919128418 M 2.003000020980835 2 L 2.003000020980835 1 L 3.997999906539917 1 L 3.997999906539917 2 L 2.003000020980835 2 M 2.003000020980835 -37 L 2.003000020980835 -38 L 3.997999906539917 -38 L 3.997999906539917 -37 L 2.003000020980835 -37 M -7 -20.99799919128418 L -6.002999782562256 -20.99799919128418 L -6 -20.99799919128418 L -6 -19.003000259399414 L -6.002999782562256 -19.003000259399414 L -7 -19.003000259399414 L -7 -20.99799919128418 M 10.001999855041504 2 L 10.001999855041504 1 L 11.998000144958496 1 L 11.998000144958496 2 L 10.001999855041504 2 M 12 -0.9969999790191649 L 12.003000259399414 -0.9969999790191649 L 13 -0.9969999790191649 L 13 0.9969999790191652 L 12.003000259399414 0.9969999790191652 L 12 0.9969999790191652 L 12 -0.9969999790191649 M -7 -24.99799919128418 L -6.002999782562256 -24.99799919128418 L -6 -24.99799919128418 L -6 -23.003000259399414 L -6.002999782562256 -23.003000259399414 L -7 -23.003000259399414 L -7 -24.99799919128418 M 13 -35.00299835205078 L 12.899999618530273 -35.00299835205078 L 12.003000259399414 -35.00299835205078 L 12 -35.00299835205078 L 12 -36.99800109863281 L 12.003000259399414 -36.99800109863281 L 12.899999618530273 -36.99800109863281 L 13 -36.99800109863281 L 13 -35.00299835205078 M 12 -4.998000144958496 L 12.003000259399414 -4.998000144958496 L 13 -4.998000144958496 L 13 -3.003000020980835 L 12.003000259399414 -3.003000020980835 L 12 -3.003000020980835 L 12 -4.998000144958496 M 12.003000259399414 -38 L 13 -38 L 13 -37.00299835205078 L 12.899999618530273 -37.00299835205078 L 12.003000259399414 -37.00299835205078 L 12.003000259399414 -38 M -7 -32.99800109863281 L -6.002999782562256 -32.99800109863281 L -6 -32.99800109863281 L -6 -31.003000259399414 L -6.002999782562256 -31.003000259399414 L -7 -31.003000259399414 L -7 -32.99800109863281 M 12 -8.996999740600586 L 12.003000259399414 -8.996999740600586 L 13 -8.997025489807129 L 13 -7.002999782562256 L 12.003000259399414 -7.002999782562256 L 12 -7.002999782562256 L 12 -8.996999740600586 M -7 -28.99799919128418 L -6.002999782562256 -28.99799919128418 L -6 -28.99799919128418 L -6 -27.003000259399414 L -6.002999782562256 -27.003000259399414 L -7 -27.003000259399414 L -7 -28.99799919128418 M 13 -23.003000259399414 L 12.899999618530273 -23.003000259399414 L 12.003000259399414 -23.003000259399414 L 12 -23.003000259399414 L 12 -24.99799919128418 L 12.003000259399414 -24.99799919128418 L 12.899999618530273 -24.99799919128418 L 13 -24.99799919128418 L 13 -23.003000259399414 M 12 -13 L 12.003000259399414 -13 L 13 -13 L 13 -11.003000259399414 L 12.003000259399414 -11.003000259399414 L 12 -11.003000259399414 L 12 -13 M -7 -38 L -6.002999782562256 -38 L -6.002999782562256 -37.00299835205078 L -7 -37.00299835205078 L -7 -38 M 13 2 L 12.003000259399414 2 L 12.003000259399414 1.003000020980835 L 13 1.003000020980835 L 13 2 M 13 -15.003000259399414 L 12.899999618530273 -15.003000259399414 L 12.003000259399414 -15.003000259399414 L 12 -15.003000259399414 L 12 -16.99799919128418 L 12.003000259399414 -16.99799919128418 L 12.899999618530273 -16.99799919128418 L 13 -16.99799919128418 L 13 -15.003000259399414 M 11.996999740600586 -38 L 11.996999740600586 -37 L 10.003000259399414 -37 L 10.003000259399414 -38 L 11.996999740600586 -38 M -7 -0.9969999790191649 L -6 -0.9969999790191649 L -6 0.9969999790191652 L -7 0.9969999790191652 L -7 -0.9969999790191649 M -7 -36.99800109863281 L -6.002999782562256 -36.99800109863281 L -6 -36.99800109863281 L -6 -35.00299835205078 L -6.002999782562256 -35.00299835205078 L -7 -35.00299835205078 L -7 -36.99800109863281 z" fill="none" stroke="rgb(255,0,0)" stroke-width="0.001mm" />
</svg>